<?xml version="1.0" encoding="UTF-8"?>
<svg xmlns="http://www.w3.org/2000/svg" xmlns:xlink="http://www.w3.org/1999/xlink" viewBox="0 0 64 64" width="64px" height="64px">
<g id="surface13043147">
<path style=" stroke:none;fill-rule:nonzero;fill:rgb(100%,100%,100%);fill-opacity:1;" d="M 12 8 C 8.710938 8 6 10.710938 6 14 L 6 20 L 42 20 L 42 14 C 42 12.867188 42.867188 12 44 12 C 45.132812 12 46 12.867188 46 14 L 46 50 C 46 50.703125 46.148438 51.367188 46.375 52 L 18 52 C 16.867188 52 16 51.132812 16 50 L 16 22 L 12 22 L 12 50 C 12 53.289062 14.710938 56 18 56 L 52 56 C 55.289062 56 58 53.289062 58 50 L 58 44 L 50 44 L 50 14 C 50 10.710938 47.289062 8 44 8 Z M 12 12 L 38.375 12 C 38.148438 12.632812 38 13.296875 38 14 L 38 16 L 10 16 L 10 14 C 10 12.867188 10.867188 12 12 12 Z M 22 24 L 22 28 L 38 28 L 38 24 Z M 22 32 L 22 36 L 38 36 L 38 32 Z M 22 40 L 22 44 L 32 44 L 32 40 Z M 50 48 L 54 48 L 54 50 C 54 51.132812 53.132812 52 52 52 C 50.867188 52 50 51.132812 50 50 Z M 50 48 "/>
</g>
</svg>
