<svg xmlns="http://www.w3.org/2000/svg" viewBox="0 0 495.49 120.37"><g id="Layer_2" data-name="Layer 2"><g id="Layer_2-2" data-name="Layer 2"><polygon points="363.74 110.11 340.54 110.11 340.54 56.06 349.15 56.06 349.15 46.86 320.41 46.86 320.41 56.06 329.07 56.06 329.07 110.11 320.39 110.11 320.39 119.54 373.37 119.54 373.37 88.06 363.74 88.06 363.74 110.11" style="fill:#333334"/><path d="M429.81,110.11h-8.49V87.37a40.65,40.65,0,0,0-.7-9,13.11,13.11,0,0,0-2.74-5.24,14.32,14.32,0,0,0-6.18-4,28.08,28.08,0,0,0-9.82-1.54q-11.49,0-17.92,6.51l6.47,6.46Q393.79,76,400.37,76a13.15,13.15,0,0,1,7,1.67,7.55,7.55,0,0,1,3.41,3.75,18.7,18.7,0,0,1,.73,5.94v5a24.91,24.91,0,0,0-13.7-4.27,19.25,19.25,0,0,0-13,4.64,15.4,15.4,0,0,0-.32,23.14,17.55,17.55,0,0,0,12,4.48q8.87,0,16.05-7v6.15h17.3Zm-18.29-3.46q-6.4,6-13.6,6a8.94,8.94,0,0,1-6.59-2.4,8,8,0,0,1-2.42-5.94,7.83,7.83,0,0,1,2.76-6.2,10.1,10.1,0,0,1,6.88-2.4q6.56,0,13,5Z" style="fill:#333334"/><path d="M495,87.92a24.07,24.07,0,0,0-6.57-13.09,23.61,23.61,0,0,0-17.49-7.16,23.36,23.36,0,0,0-18.29,8.55V46.92h-18.6v9.19H443v54H434v9.4h18.64V112a19.39,19.39,0,0,0,7.2,5.79,23.47,23.47,0,0,0,11,2.6,22.71,22.71,0,0,0,17.69-7.68q6.92-7.69,6.91-19A33.6,33.6,0,0,0,495,87.92ZM480.33,106.6a15.75,15.75,0,0,1-22.54.28Q453,102.28,453,94.4a22.42,22.42,0,0,1,.88-6.48,14.61,14.61,0,0,1,4.07-6.68,16.15,16.15,0,0,1,11.25-4.56,15.93,15.93,0,0,1,11.18,4.41,14.22,14.22,0,0,1,4.08,6.83,20.91,20.91,0,0,1,.69,5.54Q485.12,101.7,480.33,106.6Z" style="fill:#333334"/><path d="M297.06,88l-.15.87v.05a43.33,43.33,0,0,1-2.27,8.4c-.34.86-.7,1.69-1.09,2.48l-1.83-2.48L284.78,88l-.63-.86a25,25,0,0,0,8-5.07,11.1,11.1,0,0,0,3-8,11.93,11.93,0,0,0-4.21-9.27,14.88,14.88,0,0,0-10.15-3.67,15.3,15.3,0,0,0-10.13,3.68,12,12,0,0,0-4.43,9.58,16.1,16.1,0,0,0,3.19,9.22,26.11,26.11,0,0,0-6.5,4.38,16.63,16.63,0,0,0-5.21,9.35,19.52,19.52,0,0,0,2.15,13,19.83,19.83,0,0,0,11.76,9.13,24.08,24.08,0,0,0,6.71.91,21.09,21.09,0,0,0,6.05-.91,27.21,27.21,0,0,0,8.46-4.36l3.29,4.36h14.31v-9.36h-9.21l-1.84-2.36a34.42,34.42,0,0,0,4.81-10.35h6.24V88H297.06ZM277.51,71.07A4.89,4.89,0,0,1,281,69.84a4.5,4.5,0,0,1,3.45,1.22,3.9,3.9,0,0,1,1.18,2.76,4.26,4.26,0,0,1-1.42,3.08A18,18,0,0,1,278.85,80c-2.18-3.35-2.64-5-2.64-5.86A3.94,3.94,0,0,1,277.51,71.07Zm6.11,39.22a11,11,0,0,1-4.46,1,11.32,11.32,0,0,1-4.61-1,11.19,11.19,0,0,1-3.4-2.34,10.64,10.64,0,0,1-3.3-7.71,9.84,9.84,0,0,1,.42-2.91c.87-2.81,3.08-5.06,6.7-6.82l4.88,6.82,7.49,10.49A14,14,0,0,1,283.62,110.29Z" style="fill:#333334"/><path d="M246.73,110.28c-4.69,1.58-8.66-1.62-8.66-6.57V78h9.27V68.46h-9.27V55.86h-9.94V56h0V68.46h-9.27V78h9.26v30.3a11.28,11.28,0,0,0,.18,1.75c.85,5.79,6.44,10.26,12.46,10.26a30.29,30.29,0,0,0,6.69-.76V110A6,6,0,0,1,246.73,110.28Z" style="fill:#333334"/><path d="M105.2,68.47h0c-3.85,0-15,.63-20.41,7.45V68.5H64.58V78h9.76v32.11H64.6v9.4H94.52v-9.4H84.79V92.54A15.7,15.7,0,0,1,100.67,78h5.88V68.47Z" style="fill:#333334"/><polygon points="58.89 56.27 58.89 46.86 0 46.86 0 78.03 9.62 78.03 9.62 56.27 23.79 56.27 23.79 110.13 15.2 110.13 15.2 119.54 23.79 119.54 35.11 119.54 43.69 119.54 43.69 110.13 35.11 110.13 35.11 56.27 49.27 56.27 49.27 78.03 58.89 78.03 58.89 56.27" style="fill:#333334"/><path d="M160.46,110.13V68.5H141.28v9.36h0V78h9.23V105.1c-3.33,3.55-7.14,6.08-12.8,6.53a7.4,7.4,0,0,1-7.91-7.41V68.5H110.58V78h9.27v29.21A13.22,13.22,0,0,0,133,120.33h0A27.41,27.41,0,0,0,150.52,114v5.52l19.23,0v-9.41Z" style="fill:#333334"/><path d="M200.53,89.52c-8.12-1.84-16.25-2.61-16.25-8,0-4.35,5.9-5.13,9.09-5.13,4.84,0,9.17,2.87,10.13,8.09v3.6h9.59V68.5H203.5v1.74a21.91,21.91,0,0,0-9.35-2.58c-9.08-.45-20.89,3.39-20.89,14.31,0,10.16,7.93,13.06,16.05,14.8s16.06,2.52,16.35,8.32-7,6.58-11.13,6.58c-5.9,0-10.73-2.33-11.31-8.71h0v-2.85H173.6v19.56h9.59v-1.92a23.75,23.75,0,0,0,11.15,2.62c10.35,0,22.34-4.35,22.34-16.25C216.68,94.26,208.56,91.36,200.53,89.52Z" style="fill:#333334"/><path d="M27.72,7.43h-7V.56H16.22V5.79H4.5V.56H0V19.15H20.68V11.37h7V20.6h4.47V0H27.72Zm-11.5,7.85H4.5V9.57H16.22Z" style="fill:#333334"/><path d="M27.72,25.67H7.89V22.49H3.43V34a3.18,3.18,0,0,0,3.18,3.18H32.19V22.49H27.72Zm0,7.59H7.89V29.62H27.72Z" style="fill:#333334"/><path d="M74.94.65H45.84v16.6h29.1ZM70.47,13.31H50.3V4.59H70.47Z" style="fill:#333334"/><polygon points="41.89 25.75 58.11 25.75 58.11 37.56 62.66 37.56 62.66 25.75 78.89 25.75 78.89 21.81 41.89 21.81 41.89 25.75" style="fill:#333334"/><path d="M115.28,25.67H95.45V22.49H91V34a3.18,3.18,0,0,0,3.18,3.18h25.58V22.49h-4.47Zm0,7.59H95.45V29.62h19.83Z" style="fill:#333334"/><path d="M115.28,7.43h-7V.56h-4.46V5.79H92.06V.56H87.6V19.15h20.64V11.37h7V20.6h4.47V0h-4.47Zm-11.5,7.85H92.06V9.57h11.72Z" style="fill:#333334"/><path d="M139.23,24.42h-4.46V34A3.19,3.19,0,0,0,138,37.22h26.48v-4h-25.2Z" style="fill:#333334"/><rect x="159.07" width="4.46" height="27.39" style="fill:#333334"/><path d="M142,21.33a12.2,12.2,0,0,0,4.56-.84,10.88,10.88,0,0,0,3.6-2.27,10.52,10.52,0,0,0,2.36-3.37,10.3,10.3,0,0,0,0-8.24,10.52,10.52,0,0,0-2.36-3.37A10.88,10.88,0,0,0,146.54,1a12.74,12.74,0,0,0-9.1,0,10.82,10.82,0,0,0-3.61,2.27,10.52,10.52,0,0,0-2.36,3.37,9.91,9.91,0,0,0-.86,4.12,9.91,9.91,0,0,0,.86,4.12,10.52,10.52,0,0,0,2.36,3.37,10.82,10.82,0,0,0,3.61,2.27A12.1,12.1,0,0,0,142,21.33Zm-6.39-8a6.62,6.62,0,0,1-.52-2.64,6.65,6.65,0,0,1,.52-2.64A6.42,6.42,0,0,1,137,6a6.65,6.65,0,0,1,2.16-1.44,7.58,7.58,0,0,1,5.62,0,6.57,6.57,0,0,1,3.59,3.56,6.82,6.82,0,0,1,.51,2.64,6.79,6.79,0,0,1-.51,2.64A6.63,6.63,0,0,1,147,15.5,6.92,6.92,0,0,1,144.77,17a7.66,7.66,0,0,1-5.6,0A6.62,6.62,0,0,1,137,15.5,6.47,6.47,0,0,1,135.59,13.37Z" style="fill:#333334"/><rect x="214.66" width="4.46" height="37.52" style="fill:#333334"/><path d="M206.16,13.78h-4V11.33a13.68,13.68,0,0,0-.63-4.25,9.62,9.62,0,0,0-1.78-3.32A8,8,0,0,0,197,1.59a9,9,0,0,0-7.29,0,8,8,0,0,0-2.79,2.17,9.81,9.81,0,0,0-1.79,3.32,14,14,0,0,0-.62,4.25V21.81a13.87,13.87,0,0,0,.62,4.24,9.86,9.86,0,0,0,1.79,3.33,8,8,0,0,0,2.79,2.17,9,9,0,0,0,7.29,0,8,8,0,0,0,2.79-2.17,9.67,9.67,0,0,0,1.78-3.33,13.57,13.57,0,0,0,.63-4.24v-4h4V36.44h4.42V.43h-4.42Zm-8.42,7.94a9.36,9.36,0,0,1-1.09,4.81,3.92,3.92,0,0,1-6.65,0,9.36,9.36,0,0,1-1.1-4.81V11.42A9.36,9.36,0,0,1,190,6.61a3.91,3.91,0,0,1,6.65,0,9.36,9.36,0,0,1,1.09,4.81Z" style="fill:#333334"/><rect x="256.93" width="4.46" height="37.56" style="fill:#333334"/><path d="M247.9,3.76a10,10,0,0,0-3.46-2.17,13.07,13.07,0,0,0-8.84,0,10.21,10.21,0,0,0-3.47,2.17,9.46,9.46,0,0,0-2.26,3.32,11.09,11.09,0,0,0-.79,4.25V21.81a11,11,0,0,0,.79,4.24,9.5,9.5,0,0,0,2.26,3.33,10.21,10.21,0,0,0,3.47,2.17,13.07,13.07,0,0,0,8.84,0,9.8,9.8,0,0,0,5.71-5.5,10.65,10.65,0,0,0,.82-4.24V11.33a10.74,10.74,0,0,0-.82-4.25A9.86,9.86,0,0,0,247.9,3.76Zm-1.39,18a6.74,6.74,0,0,1-1.74,4.81,7,7,0,0,1-9.49,0,6.74,6.74,0,0,1-1.74-4.81V11.42a6.74,6.74,0,0,1,1.74-4.81,7,7,0,0,1,9.49,0,6.74,6.74,0,0,1,1.74,4.81Z" style="fill:#333334"/><polygon points="297.28 13.65 302.22 13.65 302.22 27.73 306.68 27.73 306.68 0 302.22 0 302.22 9.7 297.28 9.7 297.28 0.43 292.86 0.43 292.86 26.87 297.28 26.87 297.28 13.65" style="fill:#333334"/><path d="M281.79,24.42h-4.47V34a3.19,3.19,0,0,0,3.18,3.18h27.08v-4H281.79Z" style="fill:#333334"/><path d="M284.75,20.82a8.56,8.56,0,0,0,2.92-2.4A10.7,10.7,0,0,0,289.49,15a13.24,13.24,0,0,0,0-8.07,10.9,10.9,0,0,0-1.8-3.45A8.74,8.74,0,0,0,284.75,1a9.36,9.36,0,0,0-8,0,8.76,8.76,0,0,0-2.92,2.41A11.1,11.1,0,0,0,272,6.89,13.44,13.44,0,0,0,272,15a11.27,11.27,0,0,0,1.8,3.46,8.86,8.86,0,0,0,2.92,2.4,9.36,9.36,0,0,0,8,0Zm-7.66-5.19a7.37,7.37,0,0,1-.95-2.17,10.36,10.36,0,0,1,0-5.11,7.25,7.25,0,0,1,.95-2.17,4.79,4.79,0,0,1,1.54-1.5,4.31,4.31,0,0,1,4.25,0,4.82,4.82,0,0,1,1.55,1.5,7.24,7.24,0,0,1,.94,2.17,10.36,10.36,0,0,1,0,5.11,7.35,7.35,0,0,1-.94,2.17,4.88,4.88,0,0,1-1.57,1.5,3.92,3.92,0,0,1-2.1.55,4,4,0,0,1-2.13-.55A4.89,4.89,0,0,1,277.09,15.63Z" style="fill:#333334"/><polygon points="346 0 346 7.86 341.07 7.86 341.07 0.43 336.64 0.43 336.64 21.03 341.07 21.03 341.07 11.8 346 11.8 346 21.03 350.47 21.03 350.47 0 346 0" style="fill:#333334"/><path d="M346,25.88H325.57v-3h-4.46V34a3.18,3.18,0,0,0,3.18,3.18h26.18V22.92H346Zm0,7.38H325.57V29.83H346Z" style="fill:#333334"/><polygon points="316.26 8.15 316.26 19.32 334.07 19.32 334.07 15.45 320.68 15.45 320.68 11.93 332.53 11.93 332.53 0.73 316.22 0.73 316.22 4.59 328.1 4.59 328.1 8.15 316.26 8.15" style="fill:#333334"/></g></g></svg>